<?xml version="1.0" encoding="iso-8859-1"?>
<!-- Generator: Adobe Illustrator 19.0.0, SVG Export Plug-In . SVG Version: 6.00 Build 0)  -->
<svg version="1.1" id="Layer_1" xmlns="http://www.w3.org/2000/svg" xmlns:xlink="http://www.w3.org/1999/xlink" x="0px" y="0px"
	 viewBox="0 0 512 512" style="enable-background:new 0 0 512 512;" xml:space="preserve">
<g>
	<g>
		<g>
			<path d="M446.182,482.911L323.038,371.767V190.23h51.989c9.22,0,16.696-7.475,16.696-16.696V67.84
				c0-9.22-7.475-16.696-16.696-16.696H271.607C249.13,19.381,212.192,0,172.988,0c-9.22,0-16.696,7.475-16.696,16.696v207.982
				c0,9.22,7.475,16.696,16.696,16.696c39.205,0,76.144-19.381,98.619-51.143h18.04v181.543L166.511,482.909
				c-6.845,6.178-7.386,16.736-1.209,23.581c6.183,6.85,16.74,7.383,23.581,1.209l56.621-51.102l44.144,17.538v21.169
				c0,9.22,7.475,16.696,16.696,16.696c9.22,0,16.696-7.475,16.696-16.696v-21.168l44.152-17.542l56.619,51.102
				c6.844,6.18,17.401,5.636,23.581-1.208C453.568,499.645,453.029,489.088,446.182,482.911z M289.647,438.204l-16.502-6.556
				l16.502-14.894V438.204z M323.038,438.206v-21.461l16.51,14.901L323.038,438.206z"/>
			<path d="M112.871,137.383c9.22,0,16.696-7.475,16.696-16.696s-7.475-16.696-16.696-16.696H77.004
				c-9.22,0-16.696,7.475-16.696,16.696s7.475,16.696,16.696,16.696H112.871z"/>
			<path d="M101.065,75.1c6.52,6.52,17.091,6.52,23.611,0c6.52-6.519,6.52-17.091,0-23.611L99.313,26.126
				c-6.519-6.519-17.091-6.519-23.611,0c-6.52,6.519-6.52,17.091,0,23.611L101.065,75.1z"/>
			<path d="M101.066,166.274l-25.363,25.364c-6.52,6.52-6.52,17.091,0,23.611c6.518,6.52,17.09,6.521,23.611,0l25.363-25.364
				c6.52-6.52,6.52-17.091,0-23.611C118.157,159.752,107.586,159.754,101.066,166.274z"/>
		</g>
	</g>
</g>
<g>
</g>
<g>
</g>
<g>
</g>
<g>
</g>
<g>
</g>
<g>
</g>
<g>
</g>
<g>
</g>
<g>
</g>
<g>
</g>
<g>
</g>
<g>
</g>
<g>
</g>
<g>
</g>
<g>
</g>
</svg>
